<svg width="32" height="32" viewBox="0 0 32 32" fill="none" xmlns="http://www.w3.org/2000/svg">
<rect width="32" height="32" fill="black"/>
<path d="M28.3911 18.6088C28.3911 21.1262 26.3432 23.174 23.8259 23.174C21.3085 23.174 19.2607 21.1262 19.2607 18.6088C19.2607 17.9241 19.4107 17.2588 19.7042 16.6523H16.652V20.911C16.652 21.1654 16.502 21.4002 16.2672 21.5045C16.0324 21.6089 15.7585 21.5697 15.5629 21.3936C14.9629 20.8589 14.1933 20.5654 13.3911 20.5654C11.5911 20.5654 10.1302 22.0262 10.1302 23.8263C10.1302 25.6263 11.5911 27.0871 13.3911 27.0871C14.1933 27.0871 14.9694 26.7937 15.5629 26.2589C15.752 26.0893 16.0324 26.0436 16.2672 26.148C16.502 26.2523 16.652 26.4871 16.652 26.7415V31.0002H30.9995V16.6527H27.9473C28.2408 17.2592 28.3908 17.9244 28.3908 18.6092L28.3911 18.6088Z" fill="#C7A5EF"/>
<path d="M3.60903 13.3913C3.60903 10.8739 5.65687 8.82615 8.17421 8.82615C10.6916 8.82615 12.7394 10.874 12.7394 13.3913C12.7394 14.0761 12.5894 14.7414 12.2959 15.3478H15.3481V11.0891C15.3481 10.8348 15.4981 10.6 15.7329 10.4956C15.9677 10.3913 16.2416 10.4304 16.4372 10.6065C17.0372 11.1413 17.8068 11.4348 18.6089 11.4348C20.409 11.4348 21.8698 9.97393 21.8698 8.17391C21.8698 6.37388 20.409 4.91302 18.6089 4.91302C17.8068 4.91302 17.0307 5.2065 16.4372 5.7413C16.2481 5.91087 15.9742 5.95652 15.7329 5.85217C15.4981 5.74782 15.3481 5.51304 15.3481 5.25869V1H1.00061V15.3475H4.05281C3.75933 14.741 3.60933 14.0758 3.60933 13.391L3.60903 13.3913Z" fill="#C7A5EF"/>
<path d="M8.82617 23.8262C8.82617 21.3088 10.874 19.2611 13.3914 19.2611C14.0761 19.2611 14.7414 19.4111 15.3478 19.7045V16.6523H11.0891C10.8348 16.6523 10.6 16.5023 10.4957 16.2676C10.3913 16.0328 10.4304 15.7589 10.6065 15.5632C11.1413 14.9633 11.4348 14.1937 11.4348 13.3915C11.4348 11.5915 9.97396 10.1306 8.17393 10.1306C6.3739 10.1306 4.91304 11.5915 4.91304 13.3915C4.91304 13.4437 4.91304 13.4893 4.91956 13.5415C4.91956 13.5611 4.91956 13.5741 4.92608 13.5937C4.92608 13.6263 4.9326 13.6589 4.9326 13.6915C4.9326 13.7111 4.93913 13.7306 4.93913 13.7502C4.94565 13.7828 4.94565 13.8089 4.95217 13.8415C4.95217 13.8611 4.95869 13.8806 4.95869 13.9002C4.96521 13.9263 4.96521 13.9589 4.97173 13.985C4.97826 14.0045 4.97826 14.0241 4.98478 14.0437C4.9913 14.0698 4.99782 14.1024 5.00434 14.1285C5.01087 14.148 5.01739 14.1676 5.01739 14.1872L5.03695 14.2654L5.05652 14.3241C5.06304 14.3502 5.06956 14.3763 5.0826 14.4024L5.10217 14.4611C5.10869 14.4872 5.12173 14.5132 5.12826 14.5393C5.13478 14.5589 5.14782 14.5785 5.15434 14.598C5.16739 14.6241 5.17391 14.6502 5.18695 14.6698C5.19347 14.6893 5.20652 14.7089 5.21304 14.7285C5.22608 14.7545 5.2326 14.7741 5.24565 14.8002C5.25869 14.8198 5.26521 14.8393 5.27826 14.8589C5.2913 14.885 5.30434 14.9045 5.31739 14.9306C5.33043 14.9502 5.33695 14.9698 5.34999 14.9893C5.36304 15.0154 5.37608 15.035 5.38913 15.0611L5.42826 15.1198C5.4413 15.1393 5.45434 15.1654 5.47391 15.185L5.51304 15.2437C5.52608 15.2632 5.54565 15.2893 5.55869 15.3089C5.57173 15.3285 5.58478 15.348 5.60434 15.3676C5.61738 15.3872 5.63695 15.4067 5.64999 15.4263C5.66304 15.4459 5.6826 15.4654 5.69564 15.485C5.71521 15.5045 5.72825 15.5241 5.74782 15.5502C5.85217 15.6676 5.9239 15.8241 5.9239 15.9937C5.9239 16.3198 5.6826 16.5872 5.37608 16.6393H5.36304C5.33695 16.6458 5.30434 16.6458 5.27825 16.6458H1V30.9933H15.3475V27.9411C14.741 28.2281 14.0758 28.3846 13.391 28.3846C10.8736 28.3911 8.82583 26.3433 8.82583 23.8259L8.82617 23.8262Z" fill="#03DAC5"/>
<path d="M16.6522 1V4.0522C17.2587 3.76524 17.924 3.60872 18.6087 3.60872C21.1261 3.60872 23.1739 5.65656 23.1739 8.1739C23.1739 10.6912 21.1261 12.7391 18.6087 12.7391C17.924 12.7391 17.2587 12.5891 16.6522 12.2956V15.3478H20.9109C21.1653 15.3478 21.4 15.4978 21.5044 15.7326C21.6087 15.9674 21.5696 16.2413 21.3935 16.4369C20.8587 17.0369 20.5652 17.8065 20.5652 18.6086C20.5652 20.4087 22.0261 21.8695 23.8261 21.8695C25.6262 21.8695 27.087 20.4087 27.087 18.6086C27.087 17.8065 26.7935 17.0304 26.2587 16.4369C26.0892 16.2478 26.0435 15.9739 26.1479 15.7326C26.2522 15.4913 26.487 15.3478 26.7413 15.3478H31V1.0003L16.6522 1Z" fill="#03DAC5"/>
</svg>
