<svg width="170" height="170" viewBox="0 0 170 170" fill="none" xmlns="http://www.w3.org/2000/svg">
<path d="M48.5918 14.9328C47.6158 15.1274 47.0513 16.0141 46.5046 16.8709C46.0504 17.5836 45.5809 18.3209 44.984 18.4399C44.6621 18.504 44.2575 18.4026 43.7803 18.1384C43.1984 17.8164 42.5377 17.7259 41.8165 17.8696C40.4833 18.1354 39.173 19.1865 38.3221 20.0036L37.8783 17.7772L36.514 18.0491L36.9578 20.2756C35.8586 19.8475 34.2456 19.3787 32.9121 19.6445C32.1913 19.7882 31.616 20.1251 31.2018 20.6456C30.8625 21.072 30.5269 21.3216 30.205 21.3857C29.6078 21.5048 28.8915 21.0041 28.1991 20.5197C27.3659 19.9373 26.505 19.3354 25.5283 19.53C24.8766 19.6599 24.3286 20.1178 23.8535 20.929C22.1152 23.8976 18.8276 38.747 21.8397 42.9768C22.5375 43.9564 23.5309 44.3499 24.7134 44.1142C28.6322 43.3331 30.2964 40.2758 31.5123 38.0437C32.1956 36.7888 32.7857 35.7051 33.4615 35.5705L33.5142 35.5618C34.5498 35.4263 35.279 35.5292 36.1232 35.6488C37.2586 35.8094 38.5466 35.9912 40.7145 35.5591C42.8825 35.127 44.0021 34.4649 44.9899 33.8814C45.7238 33.4476 46.3577 33.0727 47.3661 32.8008L47.4181 32.7885C48.0939 32.6538 49.0544 33.4284 50.1667 34.3254C52.1447 35.9208 54.8544 38.1062 58.7732 37.3251C59.9556 37.0894 60.7227 36.345 60.9915 35.1728C62.1516 30.1101 53.4215 17.6567 50.6767 15.5824C49.9253 15.0153 49.2437 14.8029 48.592 14.9328L48.5918 14.9328ZM59.6339 34.8629C59.4889 35.4956 59.1392 35.8345 58.4997 35.962C55.2199 36.6158 52.9985 34.8244 51.0389 33.2437C49.6547 32.1276 48.4597 31.1633 47.1454 31.4253C47.0982 31.4347 47.0506 31.4454 47.0035 31.4586C45.8121 31.7797 45.0337 32.2401 44.2814 32.6848C43.3458 33.2376 42.3779 33.8099 40.4423 34.1957C38.5067 34.5815 37.394 34.424 36.3173 34.2723C35.4516 34.1497 34.5566 34.0232 33.3331 34.1835C31.944 34.3644 31.1718 35.7609 30.2905 37.379C29.0863 39.5904 27.7219 42.0965 24.4418 42.7503C23.8023 42.8778 23.3493 42.699 22.9729 42.1701C20.5454 38.7616 23.3145 24.6026 25.0545 21.6311C25.2326 21.3271 25.5074 20.9516 25.8009 20.8931C26.1946 20.8146 26.809 21.244 27.4025 21.659C28.2912 22.28 29.2982 22.9843 30.4777 22.7492C31.1406 22.617 31.7337 22.2119 32.2909 21.511C32.4972 21.2514 32.7894 21.0874 33.1847 21.0086C34.6117 20.7242 36.8384 21.6814 37.576 22.0742L38.08 22.3426L38.4417 21.9014C38.9704 21.2561 40.6564 19.5193 42.0889 19.2338C42.4842 19.155 42.817 19.1947 43.107 19.3551C43.891 19.789 44.5934 19.9355 45.256 19.8034L45.2563 19.8034C46.4355 19.5683 47.0955 18.5318 47.6779 17.6175C48.0672 17.0067 48.47 16.3745 48.8637 16.296C49.1576 16.2374 49.5546 16.4787 49.836 16.6914C52.5827 18.7685 60.5691 30.7838 59.6339 34.8626L59.6339 34.8629Z" fill="black" fill-opacity="0.04"/>
<path d="M27.8022 26.4091C25.7545 26.8173 24.4202 28.8152 24.8284 30.8632C25.2366 32.9109 27.235 34.2448 29.2827 33.8366C31.3301 33.4285 32.6645 31.4306 32.2563 29.3826C31.848 27.3346 29.8496 26.001 27.8022 26.4091V26.4091ZM29.0107 32.472C27.715 32.7303 26.4509 31.8867 26.1926 30.5909C25.9343 29.2952 26.7786 28.0313 28.0741 27.7731C29.3693 27.5149 30.6336 28.3585 30.8919 29.6542C31.1502 30.95 30.306 32.2139 29.0107 32.472Z" fill="black" fill-opacity="0.04"/>
<path d="M28.2437 28.6235C27.417 28.7883 26.8784 29.5951 27.0432 30.4218C27.208 31.2486 28.0147 31.7872 28.8415 31.6224C29.6683 31.4576 30.2064 30.6509 30.0416 29.8242C29.8768 28.9974 29.0706 28.4587 28.2437 28.6235ZM28.5695 30.2579C28.4949 30.2728 28.4222 30.2243 28.4074 30.1496C28.3925 30.075 28.441 30.0023 28.5156 29.9875C28.5902 29.9726 28.6623 30.0212 28.6772 30.0959C28.6921 30.1708 28.6438 30.2431 28.5695 30.2579Z" fill="black" fill-opacity="0.04"/>
<path d="M37.1172 29.9623L35.7197 30.2409C35.0588 30.3726 34.6285 31.0172 34.7602 31.6781L34.7945 31.8498C34.9262 32.5106 35.5708 32.941 36.2316 32.8093L37.6291 32.5307C38.29 32.399 38.7203 31.7544 38.5886 31.0935L38.5544 30.9218C38.4227 30.2609 37.778 29.8306 37.1172 29.9623Z" fill="black" fill-opacity="0.04"/>
<path d="M42.2985 28.9296L40.901 29.2082C40.2401 29.3399 39.8098 29.9845 39.9415 30.6453L39.9757 30.8171C40.1075 31.4779 40.7521 31.9083 41.4129 31.7766L42.8104 31.498C43.4713 31.3663 43.9016 30.7216 43.7699 30.0608L43.7356 29.8891C43.6039 29.2282 42.9593 28.7979 42.2985 28.9296Z" fill="black" fill-opacity="0.04"/>
<path d="M46.1546 24.0473C45.2449 24.2287 44.6521 25.1162 44.8334 26.0255C45.0147 26.9352 45.9022 27.5274 46.8121 27.346C47.7217 27.1647 48.3139 26.2772 48.1327 25.3679C47.9517 24.4585 47.0642 23.866 46.1546 24.0473ZM46.5403 25.9823C46.3828 26.0137 46.2291 25.9113 46.1978 25.7542C46.1664 25.5968 46.2692 25.4436 46.4266 25.4122C46.5841 25.3808 46.7372 25.4833 46.7685 25.6405C46.8002 25.7978 46.6983 25.9508 46.5403 25.9823Z" fill="black" fill-opacity="0.04"/>
<path d="M50.8649 24.8234C51.0462 25.733 51.9337 26.3252 52.843 26.144C53.7526 25.9626 54.3454 25.0751 54.1642 24.1658C53.9828 23.2561 53.0954 22.6639 52.1855 22.8453C51.2758 23.0266 50.6836 23.9141 50.8649 24.8234V24.8234ZM52.4574 24.2096C52.6148 24.1782 52.7685 24.2806 52.7999 24.4377C52.8312 24.5951 52.7285 24.7483 52.571 24.7797C52.4136 24.8111 52.2605 24.7086 52.2292 24.5515C52.1979 24.3943 52.3 24.241 52.4574 24.2096Z" fill="black" fill-opacity="0.04"/>
<path d="M49.2268 23.7298C50.1364 23.5485 50.7286 22.661 50.5473 21.7517C50.366 20.8421 49.4784 20.2493 48.5691 20.4305C47.6595 20.6118 47.0673 21.4993 47.2487 22.4092C47.4296 23.3183 48.3171 23.9111 49.2268 23.7298ZM48.8409 21.7942C48.9984 21.7628 49.1515 21.8656 49.1829 22.023C49.2143 22.1805 49.1118 22.3336 48.9547 22.3649C48.7973 22.3963 48.6442 22.2938 48.6128 22.1367C48.5812 21.9793 48.6835 21.8256 48.8409 21.7942Z" fill="black" fill-opacity="0.04"/>
<path d="M49.7713 26.4615C48.8616 26.6428 48.2695 27.5303 48.4507 28.4396C48.632 29.3492 49.5196 29.942 50.4289 29.7608C51.3385 29.5795 51.9307 28.692 51.7493 27.7821C51.5687 26.8726 50.6806 26.2803 49.7713 26.4615ZM50.157 28.3965C49.9995 28.4279 49.8464 28.3251 49.815 28.1677C49.7836 28.0102 49.8861 27.8571 50.0432 27.8258C50.2006 27.7944 50.3537 27.8969 50.3851 28.054C50.4164 28.2115 50.3141 28.3652 50.157 28.3965Z" fill="black" fill-opacity="0.04"/>
<path d="M94.0116 82.8377H70.6318V61.1592H94.0116V82.8377ZM92.3704 79.128H74.8465V77.4868H92.3704V62.8009H72.2731V81.1969L92.3704 81.1965V79.128Z" fill="black" fill-opacity="0.04"/>
<path d="M69.5561 57H94.897C96.8576 57 98.4531 58.5955 98.4531 60.5562V101.587C98.4531 103.548 96.8576 105.143 94.897 105.143H69.5561C67.5955 105.143 66 103.548 66 101.587V60.5562C66 58.5955 67.5951 57 69.5558 57H69.5561ZM67.6416 101.587C67.6416 102.643 68.5007 103.502 69.5565 103.502H94.8973C95.9532 103.502 96.8123 102.643 96.8123 101.587V60.5563C96.8123 59.5005 95.9532 58.6414 94.8973 58.6414H69.5565C68.5007 58.6414 67.6416 59.5005 67.6416 60.5563V101.587Z" fill="black" fill-opacity="0.04"/>
<path d="M87.3707 95.752H82.4217V98.7985H87.3707V95.752Z" fill="black" fill-opacity="0.04"/>
<path d="M82.0315 95.752H77.0824V98.7985H82.0315V95.752Z" fill="black" fill-opacity="0.04"/>
<path d="M87.169 94.272V92.1563H85.054V88.3379H87.169V86.2229H90.9875V88.3379H93.1024V92.1563H90.9875V94.272H87.169ZM91.4618 90.5151V89.9791H89.3469V87.8642H88.8109V89.9791H86.6959V90.5151H88.8109V92.6308H89.3469V90.5151H91.4618Z" fill="black" fill-opacity="0.04"/>
<path d="M76.0835 90.1201C77.2178 90.1201 78.1406 91.0437 78.1406 92.1776C78.1406 93.3118 77.2178 94.235 76.0835 94.235C74.9489 94.235 74.0261 93.3115 74.0261 92.1776C74.0261 91.0437 74.9489 90.1201 76.0835 90.1201ZM76.0835 92.5941C76.3129 92.5941 76.4993 92.4076 76.4993 92.1779C76.4993 91.9482 76.3129 91.7617 76.0835 91.7617C75.8542 91.7617 75.6674 91.9482 75.6674 92.1779C75.6674 92.4076 75.8538 92.5941 76.0835 92.5941Z" fill="black" fill-opacity="0.04"/>
<path d="M73.0965 86.9529C74.2307 86.9529 75.1536 87.8765 75.1536 89.0103C75.1536 90.1446 74.2307 91.0678 73.0965 91.0678C71.9619 91.0678 71.039 90.1442 71.039 89.0103C71.039 87.8765 71.9618 86.9529 73.0965 86.9529ZM73.0965 89.4261C73.3258 89.4261 73.5123 89.2396 73.5123 89.0099C73.5123 88.7802 73.3258 88.5938 73.0965 88.5938C72.8671 88.5938 72.6803 88.7802 72.6803 89.0099C72.6803 89.2396 72.8668 89.4261 73.0965 89.4261Z" fill="black" fill-opacity="0.04"/>
<path d="M82.1056 72.1978H82.5357V70.1418H86.2487V73.8544H84.1769V75.9104H80.4643V73.8391H78.3926V70.1265H82.1056L82.1056 72.1978ZM84.1769 72.1978V72.2132H84.6074V71.7831H84.1769V72.1978ZM82.1056 74.2688H82.5357V73.8387H82.1056V74.2688ZM80.4644 71.7677H80.0339V72.1978H80.4644V71.7677Z" fill="black" fill-opacity="0.04"/>
<path d="M126.903 36.2271L124.6 33.9239C124.92 32.745 124.597 31.4773 123.716 30.5957C123.068 29.947 122.205 29.5901 121.288 29.5901C120.371 29.5901 119.509 29.9471 118.861 30.5957C117.522 31.9344 117.522 34.1133 118.861 35.4519C119.509 36.1003 120.37 36.4567 121.287 36.4567C121.596 36.4567 121.899 36.4129 122.194 36.3319L125.754 39.8925L120.468 45.1803L119.209 43.921L117 46.1295L118.517 47.6467C118.117 48.2233 117.899 48.9057 117.899 49.6223C117.899 50.5517 118.261 51.4252 118.918 52.0822C119.596 52.7605 120.487 53.0993 121.378 53.0993C122.07 53.0993 122.761 52.8915 123.353 52.4823L124.871 54L127.08 51.7914L125.821 50.5322L131.107 45.2449L134.669 48.8071C134.347 49.9893 134.667 51.2584 135.548 52.1389C136.195 52.7865 137.057 53.1426 137.976 53.1426C138.894 53.1426 139.756 52.7864 140.403 52.1389C141.742 50.8005 141.742 48.6222 140.403 47.2827C139.753 46.6324 138.891 46.274 137.975 46.274C137.668 46.274 137.367 46.3173 137.074 46.3975L134.773 44.0965L153.456 25.4156L153.627 25.2441L154 17L145.757 17.3738L126.903 36.2271ZM122.831 34.5672C122.729 34.6694 122.618 34.7608 122.501 34.8396C122.383 34.9184 122.258 34.9857 122.127 35.0393C121.321 35.3709 120.361 35.1837 119.745 34.5672C118.894 33.7163 118.894 32.3321 119.745 31.481C120.157 31.0692 120.705 30.8418 121.287 30.8418C121.87 30.8418 122.419 31.0692 122.831 31.481C123.457 32.107 123.644 33.0403 123.309 33.8563C123.2 34.12 123.039 34.3591 122.831 34.5672L122.831 34.5672ZM119.803 51.1977C119.382 50.7768 119.151 50.2175 119.151 49.6225C119.151 49.2437 119.254 48.8836 119.431 48.5607L122.439 51.5687C121.595 52.0282 120.517 51.9109 119.803 51.1977L119.803 51.1977ZM124.871 52.2305L118.77 46.1295L119.209 45.6906L119.583 46.0652L119.876 46.3577L124.935 51.4179V51.4176L125.309 51.7919L124.871 52.2305ZM124.935 49.6479L121.352 46.0652L126.638 40.7793L130.221 44.362L124.935 49.6479ZM136.432 48.169C136.642 47.9595 136.881 47.7988 137.142 47.6913C137.407 47.5815 137.688 47.5262 137.975 47.5262C138.557 47.5262 139.105 47.7544 139.519 48.1681C140.369 49.019 140.369 50.4038 139.519 51.2544C139.108 51.6648 138.56 51.8913 137.976 51.8913C137.392 51.8913 136.843 51.6648 136.433 51.2544C135.808 50.6295 135.622 49.6945 135.96 48.8732C136.068 48.6112 136.227 48.3743 136.432 48.169V48.169ZM135.889 46.9831C135.877 46.9926 135.865 47.0052 135.853 47.0147C135.747 47.0982 135.645 47.1865 135.548 47.2837C135.452 47.3793 135.365 47.4815 135.282 47.5865C135.272 47.5977 135.26 47.6086 135.251 47.6203L123.38 35.7476C123.391 35.739 123.401 35.7283 123.412 35.7197C123.518 35.6362 123.621 35.5482 123.717 35.4515C123.814 35.354 123.904 35.2501 123.988 35.1431C123.996 35.1319 124.008 35.1213 124.016 35.1101L135.889 46.9831ZM152.399 24.7023L133.893 43.2086L131.286 40.6006L152.647 19.2387L152.399 24.7023ZM151.761 18.3546L130.4 39.7158L127.792 37.1077L146.298 18.6021L151.761 18.3546Z" fill="black" fill-opacity="0.04"/>
<path d="M125 141H130V136H125V141ZM126.877 137.877H128.123V139.124H126.877V137.877Z" fill="black" fill-opacity="0.04"/>
<path d="M128 123.5C128 122.122 126.878 121 125.5 121C124.122 121 123 122.122 123 123.5C123 124.879 124.122 126 125.5 126C126.879 126 128 124.879 128 123.5ZM124.762 123.5C124.762 123.093 125.093 122.761 125.501 122.761C125.909 122.761 126.24 123.092 126.24 123.5C126.24 123.907 125.909 124.239 125.501 124.239C125.093 124.239 124.762 123.908 124.762 123.5Z" fill="black" fill-opacity="0.04"/>
<path d="M131.684 127.535L130.499 125L129.316 127.535L126 127.673L128.584 129.378L127.719 132L130.5 130.517L133.281 132L132.416 129.378L135 127.673L131.684 127.535Z" fill="black" fill-opacity="0.04"/>
<path d="M154.278 127.378L154.711 124.192C155.096 121.358 153.038 118.73 150.124 118.334L118.64 114.055C115.726 113.659 113.041 115.643 112.656 118.477L110.845 131.8C109.29 132.758 104.275 136.13 104.552 139.613C104.847 143.3 106.162 148.184 107.212 150.595C107.516 151.291 107.799 151.844 108.048 152.331C108.65 153.507 108.952 154.096 108.798 155.226L108.68 156.097L118.101 157.377L117.902 156.205C117.324 152.805 117.084 147.57 118.361 146.575C118.752 146.27 119.378 145.765 120.082 145.143L141.431 148.044C141.283 148.39 141.135 148.726 140.988 149.039L140.483 150.116L149.905 151.396L150.023 150.526C150.176 149.397 150.625 148.909 151.517 147.937C151.889 147.533 152.308 147.076 152.787 146.486C154.442 144.444 157.013 140.088 158.281 136.611C159.487 133.309 155.495 128.683 154.277 127.378L154.278 127.378ZM150.209 120.134C151.964 120.535 153.161 122.181 152.92 123.949L151.69 133.003C151.107 135.688 150.072 135.551 149.664 135.496C149.196 135.432 148.672 135.209 148.194 134.964L150.209 120.134ZM112.17 135.482L112.85 130.634L112.826 130.648L114.447 118.72C114.688 116.952 116.281 115.686 118.078 115.767L114.687 140.722C114.17 140.826 113.616 140.898 113.156 140.836C112.724 140.777 111.594 140.616 111.906 137.414L112.169 135.481L112.17 135.482ZM119.464 143.287C118.899 143.814 118.304 144.335 117.703 144.821C117.545 144.949 117.385 145.076 117.226 145.2C115.09 146.864 115.578 152.604 115.944 155.311L110.643 154.591C110.618 153.422 110.185 152.577 109.664 151.558C109.426 151.093 109.156 150.567 108.875 149.92C107.876 147.628 106.624 142.89 106.353 139.491C106.212 137.726 108.631 135.543 110.524 134.166C110.526 134.165 110.527 134.163 110.53 134.162L110.371 135.294L110.128 137.026C110.121 137.082 110.119 137.133 110.114 137.187C109.791 140.466 110.732 142.281 112.919 142.578C113.383 142.641 113.87 142.623 114.341 142.564C114.373 142.56 114.405 142.556 114.437 142.552C114.907 142.489 115.359 142.388 115.752 142.29C115.945 142.242 116.135 142.17 116.324 142.089C117.271 141.681 118.172 140.898 119.049 140.131C120.106 139.204 121.306 138.154 122.139 138.267C122.282 138.287 122.421 138.341 122.564 138.432C122.73 138.54 122.766 138.636 122.773 138.766C122.822 139.719 121.33 141.543 119.464 143.287L119.464 143.287ZM142.101 146.363L121.717 143.593C123.252 142.018 124.653 140.163 124.577 138.689C124.539 137.97 124.185 137.374 123.552 136.967C123.183 136.73 122.788 136.58 122.376 136.525C120.712 136.298 119.25 137.579 117.835 138.818C117.433 139.17 117.026 139.525 116.631 139.829L119.871 115.995L148.421 119.875L146.561 133.566C146.272 133.18 145.986 132.747 145.702 132.316L146.503 126.421L137.186 125.155L135.955 134.216L140.119 134.782C141.088 136.813 142.488 138.79 143.117 139.637C143.834 140.603 143.118 143.603 142.101 146.363L142.101 146.363ZM139.382 132.908L137.982 132.718L138.74 127.14L144.476 127.919L144.164 130.213C143.532 129.519 142.815 129 141.929 128.879C141.517 128.823 141.096 128.861 140.678 128.991C139.96 129.215 139.459 129.694 139.231 130.378C138.999 131.073 139.099 131.959 139.382 132.908L139.382 132.908ZM156.581 136.013C155.536 138.874 153.457 142.549 151.903 144.687C151.716 144.944 151.536 145.183 151.367 145.391C150.923 145.939 150.523 146.375 150.169 146.759C149.707 147.262 149.294 147.714 148.963 148.235C148.739 148.587 148.552 148.969 148.416 149.42L143.116 148.7C143.17 148.574 143.228 148.436 143.285 148.296C143.49 147.804 143.715 147.232 143.937 146.612C144.913 143.9 145.826 140.294 144.578 138.613C142.507 135.824 140.531 132.184 140.949 130.931C140.99 130.807 141.051 130.724 141.239 130.666C141.401 130.615 141.549 130.6 141.692 130.62C142.526 130.733 143.401 132.065 144.173 133.24C144.806 134.204 145.459 135.189 146.252 135.835C146.42 135.972 146.592 136.1 146.773 136.202C147.12 136.398 147.519 136.61 147.945 136.794C148.418 136.998 148.923 137.167 149.428 137.236C150.069 137.323 150.639 137.251 151.142 137.03C152.265 136.54 153.047 135.29 153.476 133.279C153.522 133.062 153.565 132.838 153.603 132.603L153.977 129.761C155.435 131.594 157.188 134.348 156.581 136.013L156.581 136.013Z" fill="black" fill-opacity="0.04"/>
<path d="M60.7062 144.664L56.2551 133.466L55.8454 127.538L55.4289 127.295C55.2349 127.148 54.6588 126.741 53.8473 126.375L33.5162 114.538C30.8861 113.176 28.8784 114.711 28.1844 115.713L28 115.98V118.476L29.1747 119.121L28.8972 121.13L31.2714 122.741V124.356L31.5769 124.659C32.7365 125.81 35.7309 128.793 36.3864 129.487C36.4446 129.844 36.3405 130.824 36.1478 131.766C36.0469 131.697 35.9455 131.63 35.8437 131.579C35.1832 131.253 34.4924 131.306 33.9498 131.726C32.621 132.754 31.6058 134.679 32.2365 136.371C32.5466 137.203 32.5906 138.035 32.5319 138.36C32.0416 138.677 31.5182 139.243 30.9228 139.886C30.5018 140.343 29.9243 140.967 29.666 141.115C27.9597 142.096 28.3221 148.352 28.7528 150.248C29.3376 152.819 29.5674 157.961 29.5702 158.012L29.6133 159H71L69.856 157.371C69.0996 156.293 63.9109 148.915 60.706 144.663L60.7062 144.664ZM52.8974 128.209L53.8707 128.776L54.2271 133.932L57.1068 141.176C56.3343 141.059 55.4807 141.253 54.6454 141.443C53.9344 141.605 53.2125 141.77 52.4951 141.784L48.6521 134.014V128.753C48.7365 128.624 49.0475 128.265 50.0319 127.944C51.0566 127.613 52.1056 127.87 52.8973 128.209L52.8974 128.209ZM32.5311 116.351L49.1938 126.052C48.3062 126.369 47.7209 126.761 47.3383 127.138L30.7472 116.202C31.1867 116.019 31.782 115.964 32.5307 116.351H32.5311ZM33.3264 123.492V121.642L31.1091 120.137L31.2646 119.013L46.598 129.122V134.5L49.6153 140.6C48.5529 139.585 47.2732 138.009 46.0302 136.476C42.6551 132.312 40.4538 129.759 38.4396 130.295C38.5328 128.802 38.1539 128.37 37.9984 128.196C37.5406 127.684 34.3875 124.546 33.3266 123.492L33.3264 123.492ZM40.0573 132.894C39.6403 133.363 38.9422 133.953 37.9436 134.173C37.8743 133.988 37.7936 133.797 37.6913 133.603C37.6941 133.287 37.8542 132.675 38.9454 132.29C39.1941 132.26 39.5871 132.498 40.0573 132.894L40.0573 132.894ZM35.0442 133.496C35.2874 133.673 35.6162 134.11 35.8382 134.487C35.3883 134.944 34.6654 135.047 34.1209 135.048C34.2071 134.502 34.5869 133.906 35.0442 133.496V133.496ZM31.571 156.933C31.4724 155.256 31.2252 151.847 30.7564 149.787C30.2014 147.347 30.4513 143.607 30.827 142.821C31.2798 142.519 31.7724 142 32.2903 141.442C32.2343 142.992 32.2407 144.93 32.4806 146.586L34.5144 146.288C34.1021 143.437 34.4576 139.483 34.5126 138.912C34.6488 138.353 34.6213 137.702 34.5296 137.104C35.1447 137.059 35.7955 136.909 36.3887 136.604C36.6666 137.538 37.0799 138.543 37.4262 139.008C37.8996 139.68 40.8825 145.811 41.0705 146.754C41.2678 147.748 43.8659 153.868 45.1809 156.931L31.5713 156.932L31.571 156.933ZM47.4188 156.933C45.3762 152.198 43.2286 147.039 43.0837 146.35C42.8117 144.983 39.5765 138.451 39.072 137.774C38.8848 137.523 38.6151 136.829 38.4101 136.186C39.8581 135.862 40.882 135.035 41.5214 134.338C42.5562 135.464 43.6593 136.821 44.4373 137.782C45.8661 139.545 47.2156 141.21 48.4274 142.315C48.6769 142.543 48.9288 142.733 49.1829 142.902C49.7315 143.611 52.1057 146.438 55.8583 147.437L56.3844 145.439C55.0858 145.093 53.9717 144.464 53.0842 143.812C53.8273 143.747 54.5157 143.593 55.1006 143.459C55.8758 143.283 56.7556 143.083 56.9821 143.301C57.9523 144.227 63.1511 151.44 67.0303 156.934L47.419 156.934L47.4188 156.933Z" fill="black" fill-opacity="0.04"/>
<path d="M17.9892 136.211V137H20.0108V136.211C23.2457 135.733 25.8079 133.012 26.2573 129.574H27V127.426H26.2573C25.8078 123.989 23.2466 121.267 20.0108 120.789V120H17.9892V120.789C14.7534 121.267 12.1913 123.988 11.7427 127.426L11 127.426V129.573H11.7418C12.1917 133.012 14.7534 135.734 17.9892 136.211L17.9892 136.211ZM13.785 127.426C14.1952 125.173 15.8683 123.395 17.9892 122.96V125.64H20.0108V122.96C22.1307 123.395 23.8039 125.173 24.2141 127.426H21.6912V129.573H24.2141C23.8039 131.826 22.1307 133.604 20.0108 134.04V131.359H17.9892V134.04C15.8692 133.605 14.1961 131.827 13.785 129.573H16.3088V127.426H13.785Z" fill="black" fill-opacity="0.04"/>
</svg>
